<?xml version="1.0" standalone="no"?>
<!DOCTYPE svg PUBLIC "-//W3C//DTD SVG 20010904//EN"
 "http://www.w3.org/TR/2001/REC-SVG-20010904/DTD/svg10.dtd">
<svg version="1.0" xmlns="http://www.w3.org/2000/svg"
 width="700.000000pt" height="700.000000pt" viewBox="0 0 700.000000 700.000000"
 preserveAspectRatio="xMidYMid meet">
<metadata>
Created by potrace 1.14, written by Peter Selinger 2001-2017
</metadata>
<g transform="translate(0.000000,700.000000) scale(0.100000,-0.100000)"
fill="#000000" stroke="none">
<path d="M4498 4141 c-167 -55 -267 -177 -288 -351 -7 -52 -9 -330 -8 -710 l3
-625 168 -3 167 -2 1 377 c1 208 4 504 8 658 l6 280 38 19 c33 16 42 16 69 5
40 -16 63 -66 203 -439 205 -544 279 -710 357 -795 194 -213 546 -160 675 103
l38 76 3 703 3 703 -168 -2 -168 -3 -3 -649 -2 -650 -22 -23 c-26 -28 -86 -31
-117 -5 -27 22 -76 137 -190 445 -246 670 -309 785 -468 864 -66 33 -85 37
-161 40 -65 2 -102 -2 -144 -16z"/>
<path d="M912 3973 l3 -168 313 -3 312 -2 0 -675 0 -675 170 0 170 0 0 600 c0
639 0 640 48 693 43 48 63 52 327 57 l250 5 0 165 0 165 -798 3 -797 2 2 -167z"/>
<path d="M2660 3353 c0 -730 1 -791 18 -822 9 -19 30 -44 45 -55 28 -21 39
-21 668 -24 l639 -2 0 165 0 165 -495 0 -496 0 -24 25 c-24 23 -25 28 -25 175
l0 150 428 0 c235 0 433 4 440 8 9 7 12 45 10 158 l-3 149 -437 3 -438 2 0
175 0 175 518 2 517 3 0 165 0 165 -682 3 -683 2 0 -787z"/>
<path d="M2238 2810 c-95 -29 -153 -142 -123 -241 13 -42 56 -91 99 -110 107
-48 235 9 266 119 12 46 12 58 0 104 -28 100 -140 159 -242 128z"/>
</g>
</svg>
