<?xml version="1.0" encoding="utf-8"?>
<!-- Generator: Adobe Illustrator 25.4.1, SVG Export Plug-In . SVG Version: 6.00 Build 0)  -->
<svg version="1.1" id="Calque_1" xmlns="http://www.w3.org/2000/svg" xmlns:xlink="http://www.w3.org/1999/xlink" x="0px" y="0px"
	 viewBox="0 0 49 58" style="enable-background:new 0 0 49 58;" xml:space="preserve">
<style type="text/css">
	.st0{fill-rule:evenodd;clip-rule:evenodd;}
</style>
<g id="Clip-6">
</g>
<g>
	<path class="st0" d="M34,6c1.7,0,3-1.3,3-3c0-1.7-1.3-3-3-3c-1.7,0-3,1.3-3,3C31,4.7,32.3,6,34,6z"/>
	<path class="st0" d="M48.7,46.3l-7.9-14.6c-0.1-0.2-0.2-0.4-0.4-0.5l5.9-10.2c0.4-0.8,0.4-1.7,0-2.4L39.8,6.9
		c-0.7-1.2-2.2-1.6-3.4-1c-1.2,0.7-1.6,2.2-1,3.4l5.8,10.4l-8.5,14.7h-17L7.3,19.7l8.5-14.7h10.6c1.4,0,2.5-1.1,2.5-2.5
		c0-1.4-1.1-2.5-2.5-2.5h-12c-0.9,0-1.7,0.5-2.1,1.2L2.3,18.4c-0.4,0.8-0.4,1.7,0,2.5l6,10.5c-0.1,0.1-0.1,0.2-0.2,0.3L0.3,46.3
		c-0.4,0.7-0.4,1.6,0,2.3c0.4,0.7,1.1,1.2,1.9,1.3l5.8,0.8l4.3,6.2c0.5,0.7,1.2,1.1,2,1.1c0.1,0,0.2,0,0.2,0c0.9-0.1,1.7-0.6,2-1.4
		l7.7-17.2h0.6l7.7,17.2c0.4,0.8,1.1,1.4,2,1.4c0.1,0,0.2,0,0.2,0c0.8,0,1.6-0.4,2-1.1l4.3-6.2l5.8-0.8c0.8-0.1,1.5-0.6,1.9-1.3
		C49.1,47.9,49.1,47,48.7,46.3z M13.7,50.5L11.3,47c-0.4-0.6-1-0.9-1.7-1l-3.3-0.5l4.9-9.1l1,1.7c0.4,0.8,1.3,1.2,2.1,1.2h4.4
		L13.7,50.5z M39.4,46c-0.7,0.1-1.3,0.5-1.7,1l-2.4,3.5l-5-11.2h4c0.9,0,1.7-0.5,2.1-1.2l1.2-2l5.1,9.5L39.4,46z"/>
</g>
</svg>
