<?xml version="1.0" encoding="utf-8"?>
<!-- Generator: Adobe Illustrator 25.4.1, SVG Export Plug-In . SVG Version: 6.00 Build 0)  -->
<svg version="1.1" id="Calque_1" xmlns="http://www.w3.org/2000/svg" xmlns:xlink="http://www.w3.org/1999/xlink" x="0px" y="0px"
	 viewBox="0 0 60 60" style="enable-background:new 0 0 60 60;" xml:space="preserve">
<style type="text/css">
	.st0{fill-rule:evenodd;clip-rule:evenodd;}
</style>
<g id="Group-12">
	<g id="Clip-4">
	</g>
	<g id="Clip-7">
	</g>
</g>
<g>
	<path class="st0" d="M37.5,28c-1.4,0-2.5,1.1-2.5,2.5c0,1.4,1.1,2.5,2.5,2.5c1.4,0,2.5-1.1,2.5-2.5C40,29.1,38.9,28,37.5,28z"/>
	<path class="st0" d="M30,0C13.4,0,0,13.4,0,30c0,16.6,13.4,30,30,30c16.6,0,30-13.4,30-30C60,13.4,46.6,0,30,0z M52.9,20.1h-6.5
		c-1.5-5.8-4.3-10.1-7.1-13.3C45.4,9.3,50.3,14.1,52.9,20.1z M55,30c0,1.7-0.2,3.4-0.5,5h-7.2c0.2-1.7,0.3-3.4,0.3-5.3
		c0-1.6-0.1-3.2-0.3-4.7h7.2C54.8,26.7,55,28.3,55,30z M5,30c0-1.7,0.2-3.3,0.5-4.9h7.2c-0.2,1.4-0.3,2.9-0.3,4.5
		c0,1.9,0.1,3.7,0.4,5.5H5.5C5.2,33.4,5,31.7,5,30z M17.4,29.5c0-1.6,0.1-3.1,0.3-4.5h9.8V35h-9.7C17.5,33.3,17.4,31.5,17.4,29.5z
		 M41.2,20.1h-8.7V7.2C35.3,9.5,39.2,13.6,41.2,20.1z M27.5,7.2v12.9h-8.7C20.8,13.6,24.6,9.5,27.5,7.2z M27.5,40v12.8
		c-2.8-2.3-6.4-6.4-8.5-12.8H27.5z M32.5,52.8V40H41C39,46.3,35.3,50.4,32.5,52.8z M32.5,35v-9.9h9.8c0.2,1.5,0.3,3,0.3,4.7
		c0,1.9-0.1,3.6-0.4,5.3H32.5z M20.7,6.8c-2.8,3.1-5.6,7.5-7.1,13.3H7.1C9.7,14,14.6,9.2,20.7,6.8z M7.1,40h6.7
		c1.6,5.8,4.4,10.2,7.1,13.3C14.7,50.8,9.7,46,7.1,40z M39.1,53.3c2.8-3.1,5.6-7.5,7.2-13.3h6.6C50.3,46,45.3,50.9,39.1,53.3z"/>
</g>
</svg>
