<?xml version="1.0" encoding="utf-8"?>
<!-- Generator: Adobe Illustrator 25.4.1, SVG Export Plug-In . SVG Version: 6.00 Build 0)  -->
<svg version="1.1" id="Calque_1"
	xmlns="http://www.w3.org/2000/svg"
	xmlns:xlink="http://www.w3.org/1999/xlink" x="0px" y="0px" viewBox="0 0 51 62" style="enable-background:new 0 0 51 62;" xml:space="preserve">

	<path d="M35,53.5c0,1.4-1.1,2.5-2.5,2.5c-1.4,0-2.5-1.1-2.5-2.5s1.1-2.5,2.5-2.5C33.9,51,35,52.1,35,53.5" />
	<path d="M29.8,62h-8.6C20,62,19,61.1,19,60s1-2,2.2-2h8.6c1.2,0,2.2,0.9,2.2,2S31,62,29.8,62"/>
	<path d="M25.8,55h-6.6C18,55,17,54.1,17,53s1-2,2.2-2h6.6c1.2,0,2.2,0.9,2.2,2S27,55,25.8,55"/>
	<path d="M21.6,44.6h8.6v-6.1c0-0.7,0.3-1.4,0.9-1.8c0.2-0.2,5.6-4.2,5.6-11.5c0-2.9-1-5.5-2.7-7.4 c-1.9-2.2-4.7-3.3-8-3.3c-7.8,0-10.6,6.5-10.6,10.9c0,7.3,5.3,11.4,5.3,11.4c0.6,0.4,0.9,1.1,0.9,1.8V44.6z M32.3,49h-13 c-1.2,0-2.2-1-2.2-2.2v-7.3c-1.9-1.8-6.2-6.6-6.2-14.2C11,17.9,16.2,10,26,10c4.6,0,8.5,1.6,11.2,4.7c2.5,2.8,3.8,6.4,3.8,10.4 c0,7.7-4.5,12.6-6.5,14.3v7.3C34.5,48,33.5,49,32.3,49L32.3,49z"/>
	<path d="M34,24.2l-1.1-2.7c-0.9-0.1-1.5-0.3-1.8-0.6c-0.3-0.3-0.6-1-0.7-1.9L27.8,18c-0.7,0.6-1.3,0.9-1.8,0.9 c-0.3,0-0.9-0.1-1.8-0.9l-2.7,1.1c-0.1,0.8-0.3,1.5-0.7,1.8c-0.3,0.3-1,0.6-1.8,0.7L18,24.2c0.6,0.7,0.9,1.3,0.9,1.8 c0,0.3-0.2,0.8-0.9,1.8l1.1,2.7c0.8,0.1,1.4,0.2,1.7,0.5c0.4,0.4,0.7,1.2,0.7,2l2.7,1.1c0.9-0.7,1.4-0.9,1.8-0.9 c0.3,0,0.9,0.2,1.8,0.9l2.7-1.1c0.1-0.9,0.3-1.5,0.6-1.8c0.3-0.3,1-0.6,1.8-0.6l1.1-2.7c-0.5-0.6-0.8-1.3-0.8-1.8 C33.2,25.5,33.5,24.9,34,24.2z M28.7,28.7c-0.4,0.4-0.7,0.9-1,1.5c-1.2-0.5-2.4-0.5-3.5,0c-0.2-0.6-0.6-1.1-1.1-1.6 c-0.4-0.4-0.9-0.7-1.3-0.9c0.2-0.5,0.3-1.1,0.3-1.7c0-0.6-0.1-1.2-0.4-1.8c0.5-0.3,1-0.6,1.4-1c0.4-0.4,0.7-0.9,1-1.5 c1.2,0.5,2.3,0.5,3.5,0c0.2,0.5,0.6,1.1,1,1.5c0.4,0.4,1,0.8,1.5,1c-0.2,0.6-0.3,1.2-0.3,1.7c0,0.6,0.1,1.2,0.3,1.7 C29.7,28,29.2,28.3,28.7,28.7z"/>
	<path d="M25.5,7C24.7,7,24,6.3,24,5.5v-4C24,0.7,24.7,0,25.5,0S27,0.7,27,1.5v4C27,6.3,26.3,7,25.5,7"/>
	<path d="M49.5,29h-4c-0.8,0-1.5-0.7-1.5-1.5s0.7-1.5,1.5-1.5h4c0.8,0,1.5,0.7,1.5,1.5S50.3,29,49.5,29"/>
	<path d="M5.5,29h-4C0.7,29,0,28.3,0,27.5S0.7,26,1.5,26h4C6.3,26,7,26.7,7,27.5S6.3,29,5.5,29"/>
	<path d="M42.5,46c-0.4,0-0.8-0.1-1.1-0.4l-2.9-2.9c-0.6-0.6-0.6-1.6,0-2.2c0.6-0.6,1.6-0.6,2.2,0l2.9,2.9 c0.6,0.6,0.6,1.6,0,2.2C43.3,45.9,42.9,46,42.5,46"/>
	<path d="M10.5,13c-0.4,0-0.8-0.1-1.1-0.4L6.4,9.6C5.9,9,5.9,8,6.4,7.4C7,6.9,8,6.9,8.6,7.4l2.9,2.9 c0.6,0.6,0.6,1.6,0,2.2C11.3,12.9,10.9,13,10.5,13"/>
	<path d="M7.5,47c-0.4,0-0.8-0.1-1.1-0.4c-0.6-0.6-0.6-1.6,0-2.2l2.9-2.9c0.6-0.6,1.6-0.6,2.2,0 c0.6,0.6,0.6,1.6,0,2.2l-2.9,2.9C8.3,46.9,7.9,47,7.5,47"/>
	<path d="M40.5,14c-0.4,0-0.8-0.1-1.1-0.4c-0.6-0.6-0.6-1.6,0-2.2l2.9-2.9c0.6-0.6,1.6-0.6,2.2,0 c0.6,0.6,0.6,1.6,0,2.2l-2.9,2.9C41.3,13.9,40.9,14,40.5,14"/>
</svg>
