<svg xmlns="http://www.w3.org/2000/svg" viewBox="0 0 42 42">
    <symbol id="more" viewBox="0 0 16 16">
        <path d="M15.2,6.2l0,3.7l-5.5,0l0,5.5H6l0-5.5l-5.5,0V6.2l5.5,0l0-5.5l3.7,0l0,5.5L15.2,6.2z"/>
    </symbol>
    <symbol id="less" viewBox="0 0 16 16">
        <polygon points="15.4,6.2 15.4,9.8 0.6,9.8 0.6,6.2 "/>
    </symbol>
    <symbol id="arrow" viewBox="0 0 16 16">
        <path fill="none" stroke="#fff" stroke-width="2" d="M15,1l0,14L1,15 M1.4,1.4L15,15"/>
    </symbol>
    <symbol id="arrow" viewBox="0 0 16 16">
        <path fill="none" stroke="#fff" stroke-width="2" d="M15,1l0,14L1,15 M1.4,1.4L15,15"/>
    </symbol>
    <symbol id="back" viewBox="0 0 31 12">
        <path stroke="#fff" stroke-width="2" fill="none" d="M6,1L1,6l5,5 M21.4,6H1"/>
        <circle fill="#fff" cx="28.4" cy="6" r="2"/>
    </symbol>
    <symbol id="premium" viewBox="0 0 49 58">
        <path d="M34,6c1.7,0,3-1.3,3-3c0-1.7-1.3-3-3-3c-1.7,0-3,1.3-3,3C31,4.7,32.3,6,34,6z"/>
        <path d="M48.7,46.3l-7.9-14.6c-0.1-0.2-0.2-0.4-0.4-0.5l5.9-10.2c0.4-0.8,0.4-1.7,0-2.4L39.8,6.9 c-0.7-1.2-2.2-1.6-3.4-1c-1.2,0.7-1.6,2.2-1,3.4l5.8,10.4l-8.5,14.7h-17L7.3,19.7l8.5-14.7h10.6c1.4,0,2.5-1.1,2.5-2.5 c0-1.4-1.1-2.5-2.5-2.5h-12c-0.9,0-1.7,0.5-2.1,1.2L2.3,18.4c-0.4,0.8-0.4,1.7,0,2.5l6,10.5c-0.1,0.1-0.1,0.2-0.2,0.3L0.3,46.3 c-0.4,0.7-0.4,1.6,0,2.3c0.4,0.7,1.1,1.2,1.9,1.3l5.8,0.8l4.3,6.2c0.5,0.7,1.2,1.1,2,1.1c0.1,0,0.2,0,0.2,0c0.9-0.1,1.7-0.6,2-1.4 l7.7-17.2h0.6l7.7,17.2c0.4,0.8,1.1,1.4,2,1.4c0.1,0,0.2,0,0.2,0c0.8,0,1.6-0.4,2-1.1l4.3-6.2l5.8-0.8c0.8-0.1,1.5-0.6,1.9-1.3 C49.1,47.9,49.1,47,48.7,46.3z M13.7,50.5L11.3,47c-0.4-0.6-1-0.9-1.7-1l-3.3-0.5l4.9-9.1l1,1.7c0.4,0.8,1.3,1.2,2.1,1.2h4.4 L13.7,50.5z M39.4,46c-0.7,0.1-1.3,0.5-1.7,1l-2.4,3.5l-5-11.2h4c0.9,0,1.7-0.5,2.1-1.2l1.2-2l5.1,9.5L39.4,46z"/>
    </symbol>
    <symbol id="world" viewBox="0 0 60 60">
        <path d="M37.5,28c-1.4,0-2.5,1.1-2.5,2.5c0,1.4,1.1,2.5,2.5,2.5c1.4,0,2.5-1.1,2.5-2.5C40,29.1,38.9,28,37.5,28z"/>
        <path d="M30,0C13.4,0,0,13.4,0,30c0,16.6,13.4,30,30,30c16.6,0,30-13.4,30-30C60,13.4,46.6,0,30,0z M52.9,20.1h-6.5 c-1.5-5.8-4.3-10.1-7.1-13.3C45.4,9.3,50.3,14.1,52.9,20.1z M55,30c0,1.7-0.2,3.4-0.5,5h-7.2c0.2-1.7,0.3-3.4,0.3-5.3 c0-1.6-0.1-3.2-0.3-4.7h7.2C54.8,26.7,55,28.3,55,30z M5,30c0-1.7,0.2-3.3,0.5-4.9h7.2c-0.2,1.4-0.3,2.9-0.3,4.5 c0,1.9,0.1,3.7,0.4,5.5H5.5C5.2,33.4,5,31.7,5,30z M17.4,29.5c0-1.6,0.1-3.1,0.3-4.5h9.8V35h-9.7C17.5,33.3,17.4,31.5,17.4,29.5z M41.2,20.1h-8.7V7.2C35.3,9.5,39.2,13.6,41.2,20.1z M27.5,7.2v12.9h-8.7C20.8,13.6,24.6,9.5,27.5,7.2z M27.5,40v12.8 c-2.8-2.3-6.4-6.4-8.5-12.8H27.5z M32.5,52.8V40H41C39,46.3,35.3,50.4,32.5,52.8z M32.5,35v-9.9h9.8c0.2,1.5,0.3,3,0.3,4.7 c0,1.9-0.1,3.6-0.4,5.3H32.5z M20.7,6.8c-2.8,3.1-5.6,7.5-7.1,13.3H7.1C9.7,14,14.6,9.2,20.7,6.8z M7.1,40h6.7 c1.6,5.8,4.4,10.2,7.1,13.3C14.7,50.8,9.7,46,7.1,40z M39.1,53.3c2.8-3.1,5.6-7.5,7.2-13.3h6.6C50.3,46,45.3,50.9,39.1,53.3z"/>
    </symbol>
    <symbol id="first" viewBox="0 0 51 62">
        <path d="M35,53.5c0,1.4-1.1,2.5-2.5,2.5c-1.4,0-2.5-1.1-2.5-2.5s1.1-2.5,2.5-2.5C33.9,51,35,52.1,35,53.5" />
        <path d="M29.8,62h-8.6C20,62,19,61.1,19,60s1-2,2.2-2h8.6c1.2,0,2.2,0.9,2.2,2S31,62,29.8,62"/>
        <path d="M25.8,55h-6.6C18,55,17,54.1,17,53s1-2,2.2-2h6.6c1.2,0,2.2,0.9,2.2,2S27,55,25.8,55"/>
        <path d="M21.6,44.6h8.6v-6.1c0-0.7,0.3-1.4,0.9-1.8c0.2-0.2,5.6-4.2,5.6-11.5c0-2.9-1-5.5-2.7-7.4 c-1.9-2.2-4.7-3.3-8-3.3c-7.8,0-10.6,6.5-10.6,10.9c0,7.3,5.3,11.4,5.3,11.4c0.6,0.4,0.9,1.1,0.9,1.8V44.6z M32.3,49h-13 c-1.2,0-2.2-1-2.2-2.2v-7.3c-1.9-1.8-6.2-6.6-6.2-14.2C11,17.9,16.2,10,26,10c4.6,0,8.5,1.6,11.2,4.7c2.5,2.8,3.8,6.4,3.8,10.4 c0,7.7-4.5,12.6-6.5,14.3v7.3C34.5,48,33.5,49,32.3,49L32.3,49z"/>
        <path d="M34,24.2l-1.1-2.7c-0.9-0.1-1.5-0.3-1.8-0.6c-0.3-0.3-0.6-1-0.7-1.9L27.8,18c-0.7,0.6-1.3,0.9-1.8,0.9 c-0.3,0-0.9-0.1-1.8-0.9l-2.7,1.1c-0.1,0.8-0.3,1.5-0.7,1.8c-0.3,0.3-1,0.6-1.8,0.7L18,24.2c0.6,0.7,0.9,1.3,0.9,1.8 c0,0.3-0.2,0.8-0.9,1.8l1.1,2.7c0.8,0.1,1.4,0.2,1.7,0.5c0.4,0.4,0.7,1.2,0.7,2l2.7,1.1c0.9-0.7,1.4-0.9,1.8-0.9 c0.3,0,0.9,0.2,1.8,0.9l2.7-1.1c0.1-0.9,0.3-1.5,0.6-1.8c0.3-0.3,1-0.6,1.8-0.6l1.1-2.7c-0.5-0.6-0.8-1.3-0.8-1.8 C33.2,25.5,33.5,24.9,34,24.2z M28.7,28.7c-0.4,0.4-0.7,0.9-1,1.5c-1.2-0.5-2.4-0.5-3.5,0c-0.2-0.6-0.6-1.1-1.1-1.6 c-0.4-0.4-0.9-0.7-1.3-0.9c0.2-0.5,0.3-1.1,0.3-1.7c0-0.6-0.1-1.2-0.4-1.8c0.5-0.3,1-0.6,1.4-1c0.4-0.4,0.7-0.9,1-1.5 c1.2,0.5,2.3,0.5,3.5,0c0.2,0.5,0.6,1.1,1,1.5c0.4,0.4,1,0.8,1.5,1c-0.2,0.6-0.3,1.2-0.3,1.7c0,0.6,0.1,1.2,0.3,1.7 C29.7,28,29.2,28.3,28.7,28.7z"/>
        <path d="M25.5,7C24.7,7,24,6.3,24,5.5v-4C24,0.7,24.7,0,25.5,0S27,0.7,27,1.5v4C27,6.3,26.3,7,25.5,7"/>
        <path d="M49.5,29h-4c-0.8,0-1.5-0.7-1.5-1.5s0.7-1.5,1.5-1.5h4c0.8,0,1.5,0.7,1.5,1.5S50.3,29,49.5,29"/>
        <path d="M5.5,29h-4C0.7,29,0,28.3,0,27.5S0.7,26,1.5,26h4C6.3,26,7,26.7,7,27.5S6.3,29,5.5,29"/>
        <path d="M42.5,46c-0.4,0-0.8-0.1-1.1-0.4l-2.9-2.9c-0.6-0.6-0.6-1.6,0-2.2c0.6-0.6,1.6-0.6,2.2,0l2.9,2.9 c0.6,0.6,0.6,1.6,0,2.2C43.3,45.9,42.9,46,42.5,46"/>
        <path d="M10.5,13c-0.4,0-0.8-0.1-1.1-0.4L6.4,9.6C5.9,9,5.9,8,6.4,7.4C7,6.9,8,6.9,8.6,7.4l2.9,2.9 c0.6,0.6,0.6,1.6,0,2.2C11.3,12.9,10.9,13,10.5,13"/>
        <path d="M7.5,47c-0.4,0-0.8-0.1-1.1-0.4c-0.6-0.6-0.6-1.6,0-2.2l2.9-2.9c0.6-0.6,1.6-0.6,2.2,0 c0.6,0.6,0.6,1.6,0,2.2l-2.9,2.9C8.3,46.9,7.9,47,7.5,47"/>
        <path d="M40.5,14c-0.4,0-0.8-0.1-1.1-0.4c-0.6-0.6-0.6-1.6,0-2.2l2.9-2.9c0.6-0.6,1.6-0.6,2.2,0 c0.6,0.6,0.6,1.6,0,2.2l-2.9,2.9C41.3,13.9,40.9,14,40.5,14"/>
    </symbol>
    <symbol id="quote" viewBox="0 0 79 57">
        <path d="M19.3,56.5c5.1,0,9.2-1.4,12.3-4.2c3.1-2.8,4.7-6.7,4.7-11.6c0-4.6-1.4-8.2-4.2-10.7 c-2.8-2.5-6.1-3.7-9.9-3.7c-2,0-3.8,0.6-5.3,1.9l0,0l-0.7-0.5C19,19.9,26,13.8,37.4,9.4l0,0l-12.8-9C16.9,3.6,11,8.3,7,14.4 S1,27.2,1,34.7C1,41,2.6,46.3,5.7,50.3C8.9,54.4,13.4,56.5,19.3,56.5z M61,56.5c5.1,0,9.2-1.4,12.3-4.2c3.1-2.8,4.7-6.7,4.7-11.6 c0-4.6-1.4-8.2-4.2-10.7c-2.8-2.5-6.1-3.7-9.9-3.7c-2,0-3.8,0.6-5.3,1.9l0,0l-0.7-0.5c2.7-7.7,9.7-13.8,21.1-18.2l0,0l-12.8-9 c-7.7,3.3-13.6,8-17.6,14c-4,6.1-6,12.8-6,20.3c0,6.3,1.6,11.6,4.8,15.6C50.6,54.4,55.1,56.5,61,56.5z"/>
    </symbol>
    <symbol id="play" viewBox="0 0 18 24">
        <path d="M5.1,2.3L16,10.4c0.9,0.7,1.1,1.9,0.4,2.8c-0.1,0.2-0.3,0.3-0.4,0.4L5.1,21.7 c-0.9,0.7-2.1,0.5-2.8-0.4c-0.3-0.3-0.4-0.8-0.4-1.2l0-16.1c0-1.1,0.9-2,2-2C4.3,1.9,4.7,2.1,5.1,2.3z"/>
    </symbol>
    <symbol id="low_carbon" viewBox="0 0 58 58">
        <path d="M32.1,47.2c-4.4,0-8.7,0-13.1,0c-0.6,0-0.9-0.3-0.9-0.9c0-6,0-11.9,0-17.9c0-0.6,0.3-1,1-1c1.9,0,3.8,0,5.7,0
        c0.4,0,0.7,0.2,0.9,0.5c1.1,1.8,2.2,3.6,3.3,5.4c0.1,0.1,0.2,0.2,0.3,0.2c5.3,0,10.6,0,15.9,0c0.5,0,1,0.4,0.9,1c0,3.9,0,7.9,0,11.8
        c0,0.6-0.4,0.9-0.9,0.9C40.8,47.2,36.4,47.2,32.1,47.2z M32.1,45.6c4,0,8.1,0,12.1,0c0.2,0,0.2-0.1,0.2-0.2c0-3.3,0-6.6,0-9.9
        c0-0.2-0.1-0.2-0.2-0.2c-5.2,0-10.3,0-15.5,0c-0.4,0-0.7-0.2-0.9-0.5c-1.1-1.8-2.2-3.6-3.3-5.4c-0.1-0.1-0.2-0.2-0.3-0.2
	    c-1.4,0-2.8,0-4.2,0c-0.2,0-0.3,0-0.3,0.3c0,5.3,0,10.6,0,16c0,0.2,0.1,0.2,0.2,0.2C24,45.6,28,45.6,32.1,45.6z"/>
        <path d="M36.8,12.7c0,2.6-0.8,4.9-2.4,7c-0.9,1.1-1.9,2-3.2,2.6c-1.6,0.7-3.2,0.6-4.9,0c-0.2-0.1-0.2,0-0.4,0.1
        c-0.9,0.9-1.8,1.8-2.8,2.8c-0.1,0.1-0.2,0.1-0.3,0c-0.3-0.3-0.6-0.6-0.9-0.9c-0.1-0.1-0.1-0.2,0-0.3c0.9-0.9,1.8-1.8,2.7-2.7
        c0.2-0.2,0.2-0.3,0.1-0.5c-0.5-1.3-0.6-2.7-0.3-4c0.3-1.1,0.9-2,1.6-2.8c1.5-1.7,3.4-2.6,5.5-3.1c1.5-0.3,3.1-0.3,4.6-0.2
        c0.2,0,0.2,0.1,0.2,0.2C36.7,11.4,36.8,12.1,36.8,12.7z M26.3,19.7c0.1-0.1,0.1-0.2,0.2-0.2c1.2-1.2,2.5-2.4,3.7-3.7
        c0.1-0.1,0.2-0.1,0.3,0c0.3,0.3,0.6,0.6,0.9,0.9c0.1,0.1,0.1,0.2,0,0.3c-1.2,1.2-2.5,2.5-3.7,3.7c-0.1,0.1-0.1,0.1-0.1,0.2
        c0.4,0.1,0.8,0.2,1.2,0.2c1.2,0,2.2-0.4,3.1-1.1c2.4-2,3.4-4.7,3.3-7.8c-0.1-0.1-0.1-0.1-0.2-0.1c-0.9,0-1.9,0-2.8,0.2
        c-2,0.4-3.7,1.3-5,2.9C26.2,16.6,25.8,18,26.3,19.7z"/>
        <path d="M19.7,22.7c0,1,0.1,1.9,0.1,2.9c0,0.1,0,0.2-0.2,0.2c-0.4,0-0.9,0-1.3,0c-0.1,0-0.1-0.1-0.1-0.2
        c0-1.1-0.1-2.1-0.1-3.2c0-0.6,0-1.1-0.1-1.7c0-0.1-0.1-0.1-0.2-0.1c-1.1,0-2.3,0-3.4,0c-0.2,0-0.2,0.1-0.2,0.2
        c0,0.9-0.1,1.8-0.1,2.7c-0.1,1.9-0.1,3.8-0.2,5.7c-0.1,1.6-0.1,3.2-0.1,4.8c-0.1,2.2-0.1,4.4-0.2,6.6c0,1.3-0.1,2.6-0.1,3.9
        c0,0.3,0,0.6,0,0.9c0,0.1,0,0.2,0.2,0.2c0.7,0,1.3,0,2,0c0.1,0,0.1,0,0.1,0.2c0,0.4,0,0.9,0,1.3c0,0.1,0,0.2-0.1,0.2c-1,0-2,0-3.1,0
        c-0.4,0-0.8-0.4-0.8-0.8c0-0.8,0.1-1.6,0.1-2.5c0-1.6,0.1-3.2,0.1-4.8c0.1-1.8,0.1-3.5,0.2-5.3c0-1.3,0.1-2.6,0.1-3.9
        c0.1-2.2,0.1-4.4,0.2-6.6c0-1.2,0.1-2.4,0.1-3.6c0-0.5,0.4-0.9,0.9-0.9c1.7,0,3.5,0,5.2,0c0.5,0,0.9,0.3,0.9,0.9
        C19.7,20.8,19.7,21.7,19.7,22.7z"/>
        <path d="M39.3,38.4c0.9,0,1.6,0.8,1.6,1.6c0,0.9-0.8,1.7-1.7,1.6c-0.9,0-1.6-0.7-1.6-1.7C37.7,39.1,38.4,38.4,39.3,38.4 z"/>
        <path d="M32.2,41.8c-0.9,0-1.6-0.7-1.6-1.6c0-0.9,0.7-1.7,1.6-1.7c0.9,0,1.7,0.7,1.7,1.6C33.8,41.1,33.1,41.8,32.2,41.8 z"/>
        <path d="M25.1,41.8c-0.9,0-1.6-0.8-1.6-1.7c0-0.9,0.8-1.6,1.7-1.6c0.8,0,1.6,0.8,1.6,1.7C26.7,41.1,25.9,41.9,25.1,41.8 z"/>
    </symbol>

    <symbol id="boat" viewBox="0 0 58 58">
        <path d="M8.9,44.8c0.2-0.5,0.6-0.7,1.1-0.8c0.8-0.2,1.5-0.4,2.3-0.5c-0.2-0.3-0.3-0.7-0.5-1c-0.8-1.7-1.6-3.3-2.4-5
        c-0.3-0.5-0.2-0.9,0.2-1.3c0.1-0.1,0.1-0.2,0.1-0.3c0-2.6,0-5.1,0-7.7c0-0.4,0-0.8,0-1.2c0-0.6,0.4-1,1-1c2.2,0,4.3,0,6.5,0
        c0.2,0,0.4,0,0.5,0.1c1.2,0.6,2.4,1.1,3.6,1.7c0.2,0.1,0.3,0.1,0.5,0.1c5.9,0,11.9,0,17.8,0c0.8,0,1.1,0.4,1.1,1.1
        c0,2.2,0,4.4,0,6.7c0,0.2,0.1,0.3,0.3,0.3c0.5,0,1.1,0,1.6,0c0.1,0,0.2,0,0.2-0.2c-0.4-2.3-0.7-4.6-1-6.8c-0.4-2.4-0.7-4.7-1.1-7.1
        c-0.3-2.1-0.6-4.1-0.9-6.2c-0.2-1.3-0.4-2.6-0.6-3.8c-0.1-0.5,0.2-1,0.7-1.1H40h0.1c0,0.1,0.1,0,0.2,0c1.2,0,2.4,0,3.6,0
        c0.4,0.1,0.7,0.4,0.8,0.8c0.5,2.7,1,5.3,1.4,8c0.5,2.8,1,5.6,1.5,8.4c0.5,2.7,1,5.4,1.5,8.1c0.1,0.3,0,0.6-0.2,0.8
        c0,0.1-0.1,0.1-0.1,0.2c0,0.2-0.1,0.3-0.1,0.5c-1,2.1-2,4.3-3,6.4c-0.1,0.2-0.1,0.2,0.1,0.3c0.8,0.4,1.6,0.7,2.5,0.8
        c0.5,0.1,0.9,0.6,0.8,1C49,46.7,48.6,47,48,46.9c-1-0.1-2-0.4-2.8-0.9c-1.1-0.6-2.2-0.9-3.4-1c-1.8-0.2-3.5,0-5.3,0.4
        c-1,0.2-1.9,0.6-2.8,1c-1.7,0.6-3.6,0.8-5.4,0.7c-2.2,0-4.3-0.4-6.4-1.2c-1.8-0.7-3.7-1-5.7-1c-2.1,0-4.1,0.3-6.1,0.9
        c-0.1,0-0.3,0.1-0.5,0c-0.4-0.1-0.7-0.4-0.8-0.7C8.9,45.1,8.9,45,8.9,44.8z M11.8,38c0,0.1,0,0.1,0,0.2c0.8,1.6,1.6,3.3,2.4,4.9
        c0.1,0.1,0.1,0.2,0.3,0.2c0.8-0.1,1.6-0.1,2.4-0.1c1.8,0,3.6,0.3,5.2,0.9c2.6,1,5.3,1.4,8.2,1.2c1-0.1,2-0.2,3-0.6
        c1.5-0.7,3.1-1.1,4.7-1.3c1.9-0.3,3.7-0.3,5.6,0.2c0.2,0,0.2,0,0.3-0.1c0.8-1.7,1.6-3.3,2.3-5c0.1-0.3,0.1-0.3-0.2-0.3
        c-11.3,0-22.6,0-33.9,0C12,38,11.9,38,11.8,38z M25.3,36c4.5,0,8.9,0,13.4,0c0.2,0,0.3,0,0.3-0.2c0-1.8,0-3.6,0-5.5
        c0-0.4,0.1-0.3-0.3-0.3c-5.7,0-11.3,0-17,0c-0.3,0-0.6-0.1-0.8-0.2c-1.2-0.6-2.4-1.1-3.5-1.7C17.3,28,17.2,28,17,28
        c-1.7,0-3.3,0-5,0c-0.2,0-0.2,0.1-0.2,0.3c0,2.5,0,5,0,7.5c0,0.2,0.1,0.3,0.3,0.3C16.4,36,20.8,36,25.3,36z M45.9,36.1
        c0.3,0,0.6,0,0.9,0c0.2,0,0.2,0,0.2-0.2c-0.1-0.6-0.2-1.1-0.3-1.7c-0.5-2.8-1-5.6-1.5-8.5c-0.4-2.1-0.7-4.2-1.1-6.3
        c-0.4-2.2-0.8-4.4-1.2-6.5c0-0.2-0.1-0.2-0.3-0.2c-0.4,0-0.7,0-1.1,0c-0.2,0-0.3,0.1-0.2,0.3c0.2,1.5,0.5,3,0.7,4.6
        c0.3,1.8,0.6,3.7,0.8,5.5c0.3,1.8,0.6,3.7,0.8,5.5c0.3,1.8,0.6,3.7,0.8,5.5c0.1,0.6,0.3,1.2,0.2,1.9c0,0.1,0.1,0.1,0.1,0.1
        C45.3,36.1,45.6,36.1,45.9,36.1z"/>
        <path d="M43.8,10.8L43.8,10.8c-1.2,0-2.4,0-3.6,0c-0.1,0-0.1,0-0.2,0C41.4,10.8,42.6,10.8,43.8,10.8z"/>
        <path d="M27.1,31.2c1.1,0,1.9,0.8,1.9,1.9c0,1.1-0.8,1.9-1.9,1.9s-1.9-0.8-1.9-1.9C25.2,32.1,26,31.2,27.1,31.2z"/>
        <path d="M16.9,33.1c0-1.1,0.8-1.9,1.9-1.9c1.1,0,1.9,0.8,1.9,1.9c0,1.1-0.8,1.9-1.9,1.9C17.7,35.1,16.9,34.2,16.9,33.1z"/>
        <path d="M35.4,31.1c1.1,0,1.9,0.8,1.9,1.9c0,1-0.9,1.9-1.9,1.9S33.5,34,33.5,33C33.5,31.8,34.5,31,35.4,31.1z"/>
    </symbol>

    <symbol id="factory" viewBox="0 0 58 58">
        <path d="M12.4,33.5c0.1-0.2,0.2-0.4,0.4-0.5c0.2-0.1,0.3-0.1,0.5-0.1c4.4,0,8.8,0,13.1,0c0.2,0,0.3-0.1,0.4-0.2
        c0.9-1.9,1.8-3.7,2.8-5.6c0.2-0.3,0.4-0.5,0.8-0.5c1.7,0,3.3,0,5,0c0.6,0,0.9,0.4,0.9,0.9c0,6.3,0,12.6,0,18.9
        c0,0.6-0.4,0.9-0.9,0.9c-0.1,0-0.1,0-0.2,0c-7.2,0-14.5,0-21.7,0c-0.5,0-0.9-0.2-1.1-0.7C12.4,42.2,12.4,37.8,12.4,33.5z M24.4,45.5
        c3.3,0,6.6,0,9.9,0c0.2,0,0.2,0,0.2-0.2c0-5.6,0-11.2,0-16.8c0-0.2-0.1-0.2-0.2-0.2c-1,0-2,0-3.1,0c-0.2,0-0.3,0.1-0.4,0.3
        c-0.9,1.8-1.8,3.6-2.7,5.4c-0.2,0.5-0.6,0.7-1.1,0.7c-4.2,0-8.5,0-12.7,0c-0.2,0-0.2,0-0.2,0.2c0,3.5,0,6.9,0,10.4
        c0,0.2,0.1,0.3,0.3,0.3C17.8,45.5,21.1,45.5,24.4,45.5z"/>
        <path d="M45.7,31.9c0,4.8,0,9.6,0,14.4c0,0.7-0.4,1-1,1c-1.7,0-3.4,0-5.1,0c-0.2,0-0.2,0-0.2-0.2c0-0.4,0-0.9,0-1.3
        c0-0.2,0.1-0.2,0.2-0.2c1.4,0,2.7,0,4.1,0c0.2,0,0.2-0.1,0.2-0.2c0-7.8,0-15.5,0-23.3c0-0.2,0-0.2-0.2-0.2c-3.4,0-6.7,0-10.1,0
        c-0.2,0-0.2,0.1-0.2,0.2c0,0.8,0,1.5,0,2.3c0,0.2,0,0.2-0.2,0.2c-0.5,0-1,0-1.4,0c-0.1,0-0.2,0-0.2-0.2c0-2.3,0-4.6,0-6.9
        c0.1-3.1,2.5-5.9,5.6-6.5c3.8-0.7,7.4,1.6,8.3,5.4c0.1,0.5,0.2,1,0.2,1.4C45.7,22.4,45.7,27.2,45.7,31.9z M38.6,19.9
        c1.7,0,3.3,0,5,0c0.3,0,0.3,0,0.3-0.3c0-0.6,0-1.3,0-1.9c0-0.3,0-0.7-0.1-1c-0.6-2.8-3.3-4.6-6.1-4.1c-2.2,0.4-4,2.3-4.2,4.6
        c-0.1,0.8,0,1.7,0,2.5c0,0.2,0.1,0.2,0.2,0.2C35.3,19.9,37,19.9,38.6,19.9z"/>
        <path d="M20.9,21.2c0.1-2.3,0.1-4.5,0.2-6.7c0-1,0.1-1.9,0.1-2.9c0-0.5,0.4-0.9,0.9-0.9c1.5,0,3,0,4.6,0
        c0.5,0,0.9,0.4,0.9,0.9c0.1,1.9,0.2,3.7,0.2,5.6c0.1,2.1,0.2,4.3,0.3,6.4c0,0.3,0,0.5,0,0.8c0,0.1,0,0.2-0.1,0.2c-0.5,0-1,0-1.5,0.1
        c-0.2,0-0.1-0.1-0.1-0.2c-0.1-1.5-0.1-3-0.2-4.4c-0.1-2-0.2-4.1-0.3-6.1c0-0.4,0-0.8,0-1.2c-0.1-0.2-0.1-0.3-0.3-0.3
        c-0.8,0-1.7,0-2.5,0c-0.2,0-0.2,0.1-0.2,0.2c0,1.4-0.1,2.7-0.2,4.1c-0.1,2.3-0.2,4.7-0.3,7c-0.1,1.9-0.1,3.8-0.2,5.7
        c0,0.5,0,0.9-0.1,1.4c0,0.1-0.1,0.2-0.2,0.1c-0.5,0-1,0-1.5-0.1c-0.1,0-0.2-0.1-0.1-0.2c0.3-2,0.4-4.1,0.4-6.2
        C20.8,23.4,20.8,22.3,20.9,21.2L20.9,21.2z"/>
        <path d="M20.9,35.6c1,0,1.8,0.8,1.8,1.8s-0.8,1.8-1.8,1.8s-1.8-0.8-1.8-1.8C19.1,36.4,19.9,35.6,20.9,35.6z"/>
        <path d="M14.3,37.4c0-1,0.8-1.8,1.8-1.8s1.8,0.8,1.8,1.8s-0.8,1.8-1.8,1.8C15.1,39.2,14.3,38.4,14.3,37.4z"/>
        <path d="M25.7,35.6c1,0,1.8,0.8,1.8,1.8s-0.8,1.8-1.8,1.8s-1.8-0.8-1.8-1.8C23.9,36.4,24.7,35.6,25.7,35.6z"/>
    </symbol>

    <symbol id="factory1" viewBox="0 0 58 58">
        <path d="M31.3,9.3L31.3,9.3c-1.5,0-3.1,0-4.6,0l0,0C28.2,9.3,29.7,9.3,31.3,9.3z"/>
        <path d="M26.7,9.3c1.5,0,3.1,0,4.6,0c0.4,0.1,0.7,0.4,0.7,0.8c0,0.1,0,0.2,0,0.3c0,3.6,0,7.3,0,10.9
        c0,6.6,0,13.2,0,19.9c0,0.3,0,0.3,0.3,0.3c0.5,0,1,0,1.5,0c0.2,0,0.2,0,0.2-0.2c0-2.9,0-5.9,0-8.8c0-0.1,0-0.3,0-0.4
        c0.1-0.4,0.4-0.6,0.9-0.7c0.2,0,0.4,0,0.6,0c3.8,0,7.6,0,11.4,0c0.2,0,0.3,0,0.5,0c0.4,0.1,0.6,0.4,0.6,0.8c0,1.1,0,2.1,0,3.2
        c0,0.2,0.1,0.2,0.3,0.2c2.1,0,4.1,0,6.2,0c0.2,0,0.3,0,0.5,0c0.4,0.1,0.6,0.4,0.6,0.9c0,3.4,0,6.8,0,10.2c0,0.3,0,0.3,0.3,0.3
        s0.6,0,0.8,0c0.4,0,0.8,0.3,0.8,0.8c0,0.4-0.2,0.8-0.6,0.9c-0.1,0-0.3,0-0.4,0c-1.6,0-3.3,0-4.9,0c-4,0-8,0-12.1,0
        c-12.1,0-24.2,0-36.4,0c-0.6,0-1.3,0-1.9,0c-0.4,0-0.7-0.2-0.8-0.5s-0.1-0.7,0.1-0.9S0.9,47,1.1,47s0.4,0,0.5,0c0.2,0,0.2,0,0.2-0.2
        c0-0.8,0-1.6,0-2.5c0-1.2,0-2.5,0-3.7c0-0.1,0-0.2-0.1-0.4c-0.3-0.4-0.5-0.7-0.7-1.1c0,0.1,0-0.1,0-0.3c0-1.2,0-2.4,0-3.6
        c0-0.2,0-0.3,0.1-0.5c0.3-0.6,0.6-1.2,0.9-1.8c0.2-0.4,0.5-0.6,1-0.6c2.2,0,4.4,0,6.6,0c0.1,0,0.1,0,0.2,0c0.1,0,0.1,0,0.1-0.2
        c0-0.9,0-1.8,0.1-2.8c0.1-1.8,0.1-3.6,0.2-5.5c0-1,0-1.9,0.1-2.9c0-1.8,0.1-3.6,0.2-5.4c0-1.4,0.1-2.8,0.1-4.2c0-0.2,0-0.4,0-0.6
        c0-0.4,0.3-0.7,0.8-0.8c0.1,0,0.2,0,0.3,0c1.1,0,2.3,0,3.4,0c0.8,0,1.1,0.3,1.1,1.1c0.1,1.9,0.2,3.9,0.3,5.8
        c0.1,2.2,0.2,4.4,0.3,6.5c0.1,1.7,0.1,3.4,0.2,5c0.1,1.2,0.1,2.4,0.2,3.6c0,0.3,0.2,0.1,0.3,0.2c0.2,0,0.2-0.1,0.2-0.2
        c0-0.4,0-0.7,0-1.1c0-0.6,0.4-0.9,0.9-0.9c0.3,0,0.3,0,0.3-0.3c0-2.9,0-5.9,0-8.8c0-2.3,0.9-4,2.7-5.3c0.1-0.1,0.2-0.2,0.2-0.4
        c0-0.3,0-0.6,0-0.9c0-0.5,0.3-0.9,0.8-0.9c0.4,0,0.8,0,1.2,0c0.7,0,1.5,0,2.2,0c0.2,0,0.2,0,0.2-0.2c0-1,0-2,0-3.1
        C25.9,9.7,26.2,9.4,26.7,9.3z M21.2,47.2c5.8,0,11.5,0,17.3,0c0.2,0,0.2-0.1,0.2-0.3c0-3.4,0-6.7,0-10.1c0-0.1,0-0.2,0-0.3
        c0-0.3,0.2-0.6,0.5-0.7c0.2-0.1,0.4-0.1,0.6-0.1c2.1,0,4.2,0,6.2,0c0.2,0,0.2,0,0.2-0.2c0-0.7,0-1.4,0-2.1c0-0.2-0.1-0.2-0.3-0.2
        c-3.4,0-6.7,0-10.1,0c-0.2,0-0.3,0.1-0.3,0.3c0,2.9,0,5.9,0,8.8c0,0.6-0.3,1-1,1c-4.8,0-9.6,0-14.4,0c-0.1,0-0.2,0-0.3,0
        c-0.4-0.1-0.7-0.5-0.6-1c0-0.4,0.4-0.7,0.9-0.7c1.7,0,3.5,0,5.2,0c0.1,0,0.2,0,0.2-0.2c0-1.5,0-3,0-4.5c0-0.2,0-0.2-0.2-0.2
        c-0.8,0-1.7,0-2.5,0c-0.7,0-1-0.3-1-1c0-1.2,0-2.4,0-3.6c0-0.1,0-0.2-0.2-0.2c-0.8,0-1.6,0-2.4,0c-0.1,0-0.2,0.1-0.2,0.2
        c0,0.4,0,0.8,0,1.2c0,0.5-0.4,0.8-0.8,0.8c-0.8,0-1.5,0-2.3,0c-0.4,0-0.8-0.4-0.8-0.8c0-0.1,0-0.3,0-0.4c-0.1-2-0.2-4-0.3-6.1
        c-0.1-2-0.2-4.1-0.3-6.1c0.1-2.1,0-4.1,0-6.1c0-0.9-0.1-1.7-0.1-2.6c0-0.1,0-0.2-0.2-0.2c-0.6,0-1.2,0-1.8,0c-0.1,0-0.2,0-0.2,0.2
        c0,1.1-0.1,2.1-0.1,3.2c0,0.8,0,1.7-0.1,2.5c-0.1,1.8-0.1,3.6-0.2,5.5c0,1.4-0.1,2.7-0.1,4.1c-0.1,2-0.1,3.9-0.2,5.9
        c0,0.6-0.3,1-1,1c-2.3,0-4.7,0-7,0c-0.1,0-0.2,0-0.3,0.1C3,34.7,2.8,35,2.6,35.4c0,0.1-0.1,0.2-0.1,0.2c0,1,0,1.9,0,2.9
        c0,0.1,0,0.2,0.1,0.3c0.3,0.4,0.5,0.8,0.8,1.1c0.1,0.2,0.2,0.4,0.2,0.6c0,2.2,0,4.3,0,6.5c0,0.2,0,0.3,0.3,0.3
        C9.7,47.2,15.5,47.2,21.2,47.2z M47.1,37.5c-0.1,0-0.2,0-0.4,0c-2,0-4,0-6,0c-0.2,0-0.3,0-0.3,0.2c0,3.1,0,6.1,0,9.2
        c0,0.2,0,0.3,0.2,0.3c4.3,0,8.6,0,12.9,0c0.2,0,0.3,0,0.3-0.3c0-3.1,0-6.1,0-9.2c0-0.2,0-0.3-0.3-0.3C51.4,37.5,49.3,37.5,47.1,37.5
        z M30.3,32.1c0-3.1,0-6.1,0-9.2c0-0.2,0-0.2-0.2-0.2c-3.1,0-6.3,0-9.4,0c-0.2,0-0.2,0.1-0.2,0.3c0,2.3,0,4.6,0,7
        c0,0.2,0,0.2,0.2,0.2c0.7,0,1.4,0,2.1,0c0.6,0,0.9,0.3,0.9,0.9c0,1.2,0,2.4,0,3.6c0,0.2,0,0.2,0.2,0.2c0.8,0,1.7,0,2.5,0
        c0.7,0,1,0.3,1,1c0,1.8,0,3.6,0,5.3c0,0.2,0.1,0.2,0.3,0.2c0.8,0,1.6,0,2.4,0c0.2,0,0.2-0.1,0.2-0.3C30.3,38.2,30.3,35.1,30.3,32.1z
        M24.8,20.9c1.4,0,2.8,0,4.2,0c0.2,0,0.2,0,0.2-0.2c0-0.4-0.1-0.8-0.2-1.2c-0.4-1.1-1.1-1.9-2-2.6c-0.3-0.2-0.5-0.5-0.4-0.9
        c0-0.2,0-0.5,0-0.7c0-0.1,0-0.2-0.2-0.2c-0.9,0-1.9,0-2.8,0c-0.1,0-0.2,0.1-0.2,0.2c0,0.2,0,0.4,0,0.6c0,0.4-0.1,0.6-0.5,0.8
        c-0.3,0.1-0.5,0.3-0.7,0.5c-1,0.9-1.7,2-1.7,3.4c0,0.3,0,0.3,0.3,0.3C22,20.9,23.4,20.9,24.8,20.9z M30.3,18.2v-0.1
        c0-2.3,0-4.6,0-6.9c0-0.1-0.1-0.2-0.2-0.2c-0.7,0-1.5,0-2.2,0c-0.2,0-0.2,0-0.2,0.2c0,0.7,0,1.5,0,2.2c0,0.1,0.1,0.1,0.1,0.2
        c0.3,0.2,0.4,0.4,0.4,0.8c0,0.2,0,0.5,0,0.7c-0.1,0.4,0,0.8,0.4,1l0.1,0.1C29.3,16.8,29.8,17.5,30.3,18.2z"/>
        <path d="M15.6,44c-1,0-1.7-0.8-1.7-1.7c0-1,0.8-1.8,1.7-1.7c1,0,1.7,0.7,1.7,1.7C17.3,43.3,16.5,44,15.6,44z"/>
    </symbol>
</svg>
