<svg version="1.1" xmlns="http://www.w3.org/2000/svg" xmlns:xlink="http://www.w3.org/1999/xlink" viewBox="0 0 73 99" xml:space="preserve">
	<style type="text/css">
	.st0{fill:#FFFFFF;}
	.st1{fill-rule:evenodd;clip-rule:evenodd;fill:#FFFFFF;}
	.st2{fill:#0070EF;}
	</style>
	<g transform="translate(0.789189, 77.340540)">
		<path class="st0" d="M34.6,9.1V5.4h4.7v3.7c0,0,0,0.1,0.1,0.1H41c0,0,0.1,0,0.1-0.1V0.2c0,0,0-0.1-0.1-0.1h-1.6 c0,0-0.1,0-0.1,0.1v3.5h-4.7V0.2c0,0,0-0.1-0.1-0.1h-1.6c0,0-0.1,0-0.1,0.1v8.9c0,0,0,0.1,0.1,0.1L34.6,9.1 C34.5,9.2,34.6,9.1,34.6,9.1"/>
		<path class="st0" d="M54.7,9.1C54.7,9.1,54.8,9.2,54.7,9.1l1.7,0.1 c0,0,0.1,0,0.1-0.1V0.2c0,0,0-0.1-0.1-0.1h-1.6c0,0-0.1,0-0.1,0.1V9.1z"/>
		<path class="st0" d="M63.5,0.1h-4.6c0,0-0.1,0-0.1,0.1v8.9c0,0,0,0.1,0.1,0.1h1.6c0,0,0.1,0,0.1-0.1V6.2h2.9 c1.7,0,3.1-1.4,3.1-3.1C66.5,1.5,65.2,0.1,63.5,0.1 M63.5,4.5h-2.9V1.8h2.9c0.8,0,1.3,0.6,1.3,1.4C64.8,3.9,64.2,4.5,63.5,4.5"/>
		<path class="st0" d="M30.4,6.5l0.8,1.4c0,0,0,0.1,0,0.1 c-0.6,0.4-1.8,1.4-4,1.4c-3.6,0-4.6-3-4.6-4.7c0-2.7,2-4.6,4.6-4.6c2.2,0,3.4,1,4,1.4c0,0,0,0.1,0,0.1l-0.8,1.4c0,0-0.1,0-0.1,0 c-1-0.7-2.2-1.1-3.2-1.1c-1.8,0-2.8,1.4-2.8,3c0,1.7,1.2,2.9,2.8,2.9C27.9,7.6,29.2,7.2,30.4,6.5C30.3,6.4,30.4,6.4,30.4,6.5"/>
		<path class="st0" d="M45,9.2C45,9.2,45.1,9.1,45,9.2l0.1-6.8 c0-0.3,0.2-0.4,0.3-0.4c0.3-0.1,0.4,0.1,0.5,0.2c0.4,0.8,1.7,4.7,2.4,6c0.4,0.7,1.1,1.1,1.9,1.1c0.2,0,0.4,0,0.6-0.1 c1-0.3,1.6-1.1,1.6-2.1V0.2c0,0,0-0.1-0.1-0.1h-1.7c0,0-0.1,0-0.1,0.1l0,6.7c0,0.3-0.2,0.4-0.4,0.4c-0.2,0-0.4-0.1-0.5-0.3 c-0.4-0.8-1.6-4.6-2.4-6C47,0.4,46.3,0,45.5,0c-0.2,0-0.4,0-0.6,0.1c-1,0.3-1.6,1.1-1.6,2.1v6.9c0,0,0,0.1,0.1,0.1L45,9.2L45,9.2z"/>
		<path class="st0" d="M12.5,0.1l-8.3,0c0,0-0.1,0-0.1,0.1v1.7 c0,0,0,0.1,0.1,0.1h3.3v7.2c0,0,0,0.1,0.1,0.1h1.6c0,0,0.1,0,0.1-0.1l0-6.3c0,0,0-0.9,1.1-0.9h2.1c0,0,0.1,0,0.1-0.1L12.5,0.1 C12.6,0.2,12.6,0.1,12.5,0.1"/>
		<path class="st0" d="M21.3,1.9C21.4,1.9,21.4,1.9,21.3,1.9l0.1-1.7 c0,0,0-0.1-0.1-0.1l-7.1,0c0,0-0.1,0-0.1,0.1V8c0,0.6,0,1.2,0.9,1.2h6.2c0,0,0.1,0,0.1-0.1V7.5c0,0,0-0.1-0.1-0.1l-5.1,0 c-0.4,0-0.3-0.4-0.3-0.4l0-1.5h4.6c0,0,0.1,0,0.1-0.1V3.9c0,0,0-0.1-0.1-0.1l-4.6,0V1.9L21.3,1.9L21.3,1.9z"/>
		<path class="st0" d="M38,15.1c0-1.7-1.3-3-3-3h-4.7 c0,0-0.1,0-0.1,0.1v8.9c0,0,0,0.1,0.1,0.1h1.6c0,0,0.1,0,0.1-0.1V18h2.5l1.8,3.1c0,0,0,0,0.1,0h1.8c0.1,0,0.1-0.1,0.1-0.1l-1.9-3.3 C37.2,17.3,38,16.3,38,15.1 M34.9,16.5h-3v-2.7h3c0.7,0,1.2,0.6,1.2,1.3C36.2,15.9,35.6,16.5,34.9,16.5"/>
		<path class="st0" d="M67.7,15.8c-1.5-0.5-2.7-0.7-2.7-1.3 c0-0.5,0.4-0.8,1.1-0.8c1.3,0,2.4,0.5,3,0.9c0,0,0.1,0,0.1,0l1-1.3c0,0,0-0.1,0-0.1c-1.1-0.7-2.5-1.2-4.1-1.2c-1.5,0-2.9,1-2.9,2.7 c0,1.7,1.3,2.3,2.7,2.7c1.2,0.4,2.9,0.7,2.9,1.4c0,0.5-0.3,0.9-1.4,0.9c-1.1,0-2.6-0.5-3-1.3c0,0-0.1,0-0.1,0L63,19 c0,0,0,0.1,0,0.1c0.5,1.3,2.7,2.1,4.5,2.1c1.9,0,3.2-1,3.2-2.7C70.6,16.8,69.1,16.3,67.7,15.8"/>
		<path class="st0" d="M50.6,21.1C50.6,21.1,50.6,21.2,50.6,21.1 l1.7,0.1c0,0,0.1,0,0.1-0.1v-8.9c0,0,0-0.1-0.1-0.1h-1.6c0,0-0.1,0-0.1,0.1V21.1z"/>
		<path class="st0" d="M48.1,15.9h-4.6c0,0-0.1,0-0.1,0.1v1.4 c0,0,0,0.1,0.1,0.1H47c-0.1,1.2-0.9,2.1-2.8,2.1c-2.2,0-3-1.4-3-2.9c0-1.6,1-2.9,2.9-2.9c1.1,0,2.1,0.4,2.8,0.9c0,0,0.1,0,0.1,0 l0.7-1.3c0,0,0-0.1,0-0.1c-1-0.8-2.3-1.1-3.7-1.1c-2.5,0-4.7,1.7-4.7,4.6c0,2.1,1.2,4.7,4.8,4.7c2.7,0,4.5-1.5,4.5-4.6 C48.7,16.2,48.4,15.9,48.1,15.9"/>
		<path class="st0" d="M11,21.2C11.1,21.2,11.1,21.1,11,21.2l0.1-6.8 c0-0.3,0.2-0.4,0.3-0.4c0.3-0.1,0.4,0.1,0.5,0.2c0.4,0.8,1.7,4.7,2.4,6c0.4,0.7,1.1,1.1,1.9,1.1c0.2,0,0.4,0,0.6-0.1 c1-0.3,1.6-1.1,1.6-2.1v-6.9c0,0,0-0.1-0.1-0.1h-1.7c0,0-0.1,0-0.1,0.1l0,6.7c0,0.3-0.2,0.4-0.4,0.4c-0.2,0-0.4-0.1-0.5-0.3 c-0.4-0.8-1.6-4.6-2.4-6C13,12.4,12.3,12,11.5,12c-0.2,0-0.4,0-0.6,0.1c-1,0.3-1.6,1.1-1.6,2.1v6.9c0,0,0,0.1,0.1,0.1L11,21.2 L11,21.2z"/>
		<path class="st0" d="M7.2,13.9C7.2,13.9,7.3,13.9,7.2,13.9l0.1-1.7 c0,0,0-0.1-0.1-0.1l-7.1,0c0,0-0.1,0-0.1,0.1v7.8c0,0.6,0,1.2,0.9,1.2h6.2c0,0,0.1,0,0.1-0.1v-1.7c0,0,0-0.1-0.1-0.1l-5.1,0 c-0.4,0-0.3-0.4-0.3-0.4l0-1.5h4.6c0,0,0.1,0,0.1-0.1v-1.5c0,0,0-0.1-0.1-0.1l-4.6,0v-1.9L7.2,13.9L7.2,13.9z"/>
		<path class="st0" d="M61.8,13.9C61.8,13.9,61.8,13.9,61.8,13.9 l0.1-1.7c0,0,0-0.1-0.1-0.1l-7.1,0c0,0-0.1,0-0.1,0.1v7.8c0,0.6,0,1.2,1,1.2h6.2c0,0,0.1,0,0.1-0.1v-1.7c0,0,0-0.1-0.1-0.1l-5.1,0 c-0.4,0-0.3-0.4-0.3-0.4l0-1.5h4.6c0,0,0.1,0,0.1-0.1v-1.5c0,0,0-0.1-0.1-0.1l-4.6,0l0-1.9L61.8,13.9L61.8,13.9z"/>
		<path class="st0" d="M28,13.9C28,13.9,28,13.9,28,13.9l0.1-1.7 c0,0,0-0.1-0.1-0.1l-7.1,0c0,0-0.1,0-0.1,0.1v7.8c0,0.6,0,1.2,0.9,1.2H28c0,0,0.1,0,0.1-0.1v-1.7c0,0,0-0.1-0.1-0.1l-5.1,0 c-0.4,0-0.3-0.4-0.3-0.4l0-1.5h4.6c0,0,0.1,0,0.1-0.1v-1.5c0,0,0-0.1-0.1-0.1l-4.6,0l0-1.9L28,13.9L28,13.9z"/>
	</g>

	<circle class="st1" cx="36.5" cy="36.5" r="36.5"/>

	<path class="st2" d="M47.3,47.5c0.1,0,0.1-0.1,0.1-0.1l0-13.1 c0-0.5,0.3-0.7,0.7-0.8c0.5-0.1,0.8,0.1,1,0.4c0.8,1.5,3.3,9.2,4.8,11.7c0.8,1.4,2.2,2.2,3.7,2.2c0.4,0,0.8-0.1,1.1-0.2 c1.9-0.5,3.2-2.2,3.2-4.1V30c0-0.1-0.1-0.1-0.1-0.1h-3.3c-0.1,0-0.1,0.1-0.1,0.1l0,13.1c0,0.5-0.4,0.8-0.7,0.8 c-0.4,0.1-0.9-0.1-1.1-0.5c-0.8-1.5-3.2-9-4.7-11.6c-0.8-1.4-2.2-2.2-3.7-2.2c-0.4,0-0.8,0.1-1.1,0.2c-1.9,0.5-3.2,2.2-3.2,4.1v13.5 c0,0.1,0.1,0.1,0.1,0.1L47.3,47.5L47.3,47.5z"/>
	<path class="st2" d="M26,29.8l-16.4,0c-0.1,0-0.1,0.1-0.1,0.1v3.2 c0,0.1,0.1,0.1,0.1,0.1h6.5v14c0,0.1,0.1,0.1,0.1,0.1h3.2c0.1,0,0.1-0.1,0.1-0.1l0-12.2c0,0,0-1.8,2.3-1.8H26c0.1,0,0.1-0.1,0.1-0.1 V30C26.2,29.9,26.1,29.8,26,29.8"/>
	<path class="st2" d="M41.9,33.3c0.1,0,0.1-0.1,0.1-0.1V30 c0-0.1-0.1-0.1-0.1-0.1l-14,0c-0.1,0-0.1,0.1-0.1,0.1v15.1c0,1.2,0.1,2.4,1.9,2.4h12.3c0.1,0,0.1-0.1,0.1-0.1v-3.2 c0-0.1-0.1-0.1-0.1-0.1l-10,0c-0.8,0-0.7-0.8-0.7-0.8l0-2.9h9c0.1,0,0.1-0.1,0.1-0.1v-3c0-0.1-0.1-0.1-0.1-0.1l-9,0l0-3.7H41.9z"/>
	<path class="st2" d="M23.9,43.6c-1.1,0-2,0.9-2,2c0,1.1,0.9,2,2,2 s2-0.9,2-2C25.9,44.5,25.1,43.6,23.9,43.6"/>
</svg>
